<svg width="32" height="32" viewBox="0 0 32 32" xmlns="http://www.w3.org/2000/svg" shape-rendering="crispEdges">
  <g id="wooden_plank" transform="translate(1, 4)">
    <rect x="0" y="0" width="30" height="24" fill="#000000"/> <rect x="1" y="1" width="28" height="22" fill="#8b4513"/> <rect x="3" y="4" width="24" height="1" fill="#a07050"/>
    <rect x="5" y="8" width="10" height="1" fill="#a07050"/>
    <rect x="18" y="12" width="10" height="1" fill="#a07050"/>
    <rect x="3" y="16" width="15" height="1" fill="#a07050"/>
    <rect x="22" y="20" width="5" height="1" fill="#a07050"/>
  </g>
  
  <g id="parchment" transform="translate(5, 7)">
    <rect x="0" y="0" width="22" height="18" fill="#000000"/> <rect x="1" y="1" width="20" height="16" fill="#ffffd0"/> <rect x="1" y="1" width="1" height="1" fill="#000000"/> <rect x="20" y="1" width="1" height="1" fill="#000000"/> <rect x="1" y="16" width="1" height="1" fill="#000000"/> <rect x="20" y="16" width="1" height="1" fill="#000000"/> <g id="checklist_items" transform="translate(4, 3)">
      <g id="item_1">
        <rect x="0" y="0" width="3" height="3" fill="#000000"/> <rect x="1" y="1" width="1" height="1" fill="#ffffff"/> <rect x="0" y="1" width="1" height="1" fill="#00FF00"/>
        <rect x="1" y="2" width="1" height="1" fill="#00FF00"/>
        <rect x="2" y="1" width="1" height="1" fill="#00FF00"/>
        <rect x="2" y="0" width="1" height="1" fill="#00FF00"/>
        
        <rect x="5" y="1" width="10" height="1" fill="#000000"/> 
      </g>
      
      <g id="item_2" transform="translate(0, 5)">
        <rect x="0" y="0" width="3" height="3" fill="#000000"/> <rect x="1" y="1" width="1" height="1" fill="#ffffff"/> <rect x="5" y="1" width="8" height="1" fill="#000000"/>
      </g>
      
      <g id="item_3" transform="translate(0, 10)">
        <rect x="0" y="0" width="3" height="3" fill="#000000"/> <rect x="1" y="1" width="1" height="1" fill="#ffffff"/> <rect x="0" y="1" width="1" height="1" fill="#00FF00"/>
        <rect x="1" y="2" width="1" height="1" fill="#00FF00"/>
        <rect x="2" y="1" width="1" height="1" fill="#00FF00"/>
        <rect x="2" y="0" width="1" height="1" fill="#00FF00"/>
        
        <rect x="5" y="1" width="9" height="1" fill="#000000"/>
      </g>
    </g>
  </g>
</svg>