<svg width="32" height="32" viewBox="0 0 32 32" xmlns="http://www.w3.org/2000/svg" shape-rendering="crispEdges">
  <g id="chain_system" transform="translate(4, 4)">
    
    <rect x="0" y="6" width="16" height="10" fill="#000000"/> <rect x="2" y="4" width="12" height="2" fill="#000000"/> <rect x="2" y="16" width="12" height="2" fill="#000000"/> <rect x="6" y="8" width="4" height="6" fill="#000000"/> <rect x="10" y="0" width="16" height="10" fill="#000000"/> <rect x="12" y="-2" width="12" height="2" fill="#000000"/> <rect x="12" y="10" width="12" height="2" fill="#000000"/> <rect x="16" y="2" width="4" height="6" fill="#000000"/> <rect x="1" y="7" width="14" height="8" fill="#a0a0a0"/> <rect x="3" y="5" width="10" height="2" fill="#a0a0a0"/> <rect x="3" y="15" width="10" height="2" fill="#a0a0a0"/> <rect x="11" y="1" width="14" height="8" fill="#a0a0a0"/> <rect x="13" y="-1" width="10" height="2" fill="#a0a0a0"/> <rect x="13" y="9" width="10" height="2" fill="#a0a0a0"/> <rect x="10" y="6" width="4" height="4" fill="#000000"/> <rect x="11" y="7" width="2" height="2" fill="#a0a0a0"/> <rect x="7" y="9" width="2" height="4" fill="#000000"/> <rect x="8" y="10" width="1" height="2" fill="#a0a0a0"/> <rect x="3" y="5" width="1" height="1" fill="#ffffff"/> <rect x="23" y="1" width="1" height="1" fill="#ffffff"/> <rect x="2" y="4" width="12" height="1" fill="#c0c0c0"/> <rect x="12" y="-2" width="12" height="1" fill="#c0c0c0"/> <rect x="1" y="7" width="1" height="8" fill="#c0c0c0"/> <rect x="11" y="1" width="1" height="8" fill="#c0c0c0"/> <rect x="15" y="7" width="1" height="8" fill="#606060"/> <rect x="25" y="1" width="1" height="8" fill="#606060"/> <rect x="3" y="16" width="10" height="1" fill="#606060"/> <rect x="13" y="10" width="10" height="1" fill="#606060"/> <rect x="10" y="9" width="1" height="1" fill="#606060"/> <rect x="7" y="12" width="1" height="1" fill="#606060"/> <g id="link_sprinkles" transform="translate(18, 5)">
      <rect x="0" y="0" width="2" height="2" fill="#ffffff"/> <rect x="1" y="-1" width="1" height="1" fill="#ffffff"/>
      <rect x="-1" y="1" width="1" height="1" fill="#ffffff"/>
      
      <rect x="6" y="2" width="2" height="2" fill="#ffffff"/> <rect x="7" y="1" width="1" height="1" fill="#ffffff"/>
      <rect x="5" y="3" width="1" height="1" fill="#ffffff"/>
    </g>
    
  </g>
</svg>