<svg width="512" height="512" viewBox="0 0 32 32" xmlns="http://www.w3.org/2000/svg" shape-rendering="crispEdges">
  <defs>
    </defs>

  <rect x="10" y="2" width="12" height="28" fill="#1e1e2e" />
  <rect x="6" y="4" width="20" height="24" fill="#1e1e2e" />
  <rect x="4" y="6" width="24" height="20" fill="#1e1e2e" />
  <rect x="2" y="10" width="28" height="12" fill="#1e1e2e" />

  <rect x="10" y="4" width="12" height="24" fill="#2b2d42" />
  <rect x="8" y="6" width="16" height="20" fill="#2b2d42" />
  <rect x="6" y="8" width="20" height="16" fill="#2b2d42" />
  <rect x="4" y="12" width="24" height="8" fill="#2b2d42" />

  <rect x="6" y="10" width="20" height="1" fill="#1e1e2e" opacity="0.4" />
  <rect x="4" y="16" width="24" height="1" fill="#1e1e2e" opacity="0.4" />
  <rect x="6" y="22" width="20" height="1" fill="#1e1e2e" opacity="0.4" />
  <rect x="10" y="6" width="1" height="20" fill="#1e1e2e" opacity="0.4" />
  <rect x="16" y="4" width="1" height="24" fill="#1e1e2e" opacity="0.4" />
  <rect x="22" y="6" width="1" height="20" fill="#1e1e2e" opacity="0.4" />

  <rect x="6" y="6" width="4" height="2" fill="#9d4edd" />
  <rect x="6" y="9" width="2" height="2" fill="#ff6b35" />
  <rect x="24" y="6" width="2" height="2" fill="#00f5a0" />
  <rect x="6" y="20" width="2" height="2" fill="#00f5a0" />
  <rect x="8" y="23" width="3" height="2" fill="#00f5a0" />
  <rect x="23" y="21" width="2" height="4" fill="#ffb703" />
  <rect x="26" y="23" width="2" height="2" fill="#ff6b35" />

  <rect x="11" y="22" width="10" height="6" fill="#1e1e2e" />
  <rect x="13" y="24" width="6" height="4" fill="#9d4edd" />
  <rect x="13" y="24" width="2" height="2" fill="#ff6b35" />
  <rect x="17" y="26" width="2" height="2" fill="#ffb703" />

  <rect x="13" y="5" width="4" height="18" fill="#1e1e2e" />
  <rect x="14" y="6" width="2" height="16" fill="#00f5a0" />
  <rect x="12" y="3" width="6" height="4" fill="#1e1e2e" />
  <rect x="13" y="4" width="4" height="2" fill="#ffb703" />

  <rect x="17" y="7" width="8" height="10" fill="#1e1e2e" />
  <rect x="25" y="9" width="4" height="6" fill="#1e1e2e" />
  <rect x="17" y="8" width="8" height="8" fill="#00f5a0" />
  <rect x="25" y="10" width="2" height="4" fill="#00f5a0" />
  <rect x="20" y="10" width="4" height="4" fill="#ff6b35" />
  <rect x="21" y="11" width="2" height="2" fill="#ffb703" />
</svg>