<svg width="32" height="32" viewBox="0 0 32 32" xmlns="http://www.w3.org/2000/svg" shape-rendering="crispEdges">
  <g id="diagonal_rocket_system" transform="rotate(-45 16 16)">
    <g id="rocket_straight" transform="translate(13, 8)">
      
      <g id="clunky_body_cone">
        <rect x="1" y="0" width="4" height="1" fill="#000000"/>
        <rect x="2" y="1" width="2" height="1" fill="#000000"/>
        <rect x="2" y="0" width="2" height="1" fill="#007BFF"/> <rect x="0" y="1" width="6" height="10" fill="#000000"/> <rect x="1" y="2" width="4" height="8" fill="#ffffff"/> <rect x="2" y="5" width="2" height="2" fill="#000000"/>
        <rect x="2" y="5" width="1" height="1" fill="#a0d8f1"/> <rect x="3" y="6" width="1" height="1" fill="#ffffff"/> </g>
      
      <g id="clunky_fins" transform="translate(0, 7)">
        <rect x="0" y="0" width="1" height="6" fill="#000000"/> <rect x="0" y="1" width="1" height="4" fill="#a0a0a0"/>
        <rect x="5" y="0" width="1" height="6" fill="#000000"/> <rect x="5" y="1" width="1" height="4" fill="#a0a0a0"/>
      </g>
      
      <g id="clunky_fire" transform="translate(0, 11)">
        <rect x="1" y="0" width="4" height="4" fill="#000000"/> <rect x="1" y="0" width="4" height="3" fill="#ff4500"/> <rect x="2" y="1" width="2" height="1" fill="#ffff00"/> <rect x="2" y="2" width="1" height="1" fill="#ffffff"/> <rect x="2" y="4" width="2" height="2" fill="#000000"/> <rect x="2" y="4" width="2" height="2" fill="#ff4500"/> <rect x="1" y="7" width="1" height="1" fill="#000000"/> <rect x="1" y="7" width="1" height="1" fill="#ffff00"/> <rect x="4" y="7" width="1" height="1" fill="#000000"/> <rect x="4" y="7" width="1" height="1" fill="#ff4500"/> <rect x="2" y="9" width="1" height="1" fill="#000000"/> <rect x="2" y="9" width="1" height="1" fill="#ffffff"/> <rect x="4" y="10" width="1" height="1" fill="#000000"/> <rect x="4" y="10" width="1" height="1" fill="#ff4500"/> </g>
      
    </g>
  </g>
</svg>