<svg width="32" height="32" viewBox="0 0 32 32" xmlns="http://www.w3.org/2000/svg" shape-rendering="crispEdges">
  <g id="lens_block" transform="translate(0, 0)">
    <rect x="4" y="0" width="12" height="4" fill="#000000"/> <rect x="4" y="16" width="12" height="4" fill="#000000"/> <rect x="0" y="4" width="4" height="12" fill="#000000"/> <rect x="16" y="4" width="4" height="12" fill="#000000"/> <rect x="2" y="2" width="2" height="2" fill="#000000"/>
    <rect x="16" y="2" width="2" height="2" fill="#000000"/>
    <rect x="2" y="16" width="2" height="2" fill="#000000"/>
    <rect x="16" y="16" width="2" height="2" fill="#000000"/>

    <rect x="4" y="4" width="12" height="12" fill="#87ceeb"/>

    <rect x="6" y="6" width="1" height="1" fill="#ffffff"/>
  </g>
  
  <g id="handle_connect" transform="translate(19, 19)">
    <rect x="0" y="0" width="4" height="4" fill="#000000"/> <rect x="1" y="1" width="2" height="2" fill="#8b4513"/> <rect x="2" y="2" width="4" height="4" fill="#000000"/>
    <rect x="3" y="3" width="2" height="2" fill="#8b4513"/>

    <rect x="4" y="4" width="4" height="4" fill="#000000"/>
    <rect x="5" y="5" width="2" height="2" fill="#8b4513"/>

    <rect x="6" y="6" width="4" height="4" fill="#000000"/>
    <rect x="7" y="7" width="2" height="2" fill="#8b4513"/>

    <rect x="8" y="8" width="4" height="4" fill="#000000"/>
    <rect x="9" y="9" width="2" height="2" fill="#8b4513"/>
  </g>
</svg>