<svg width="32" height="32" viewBox="0 0 32 32" xmlns="http://www.w3.org/2000/svg" shape-rendering="crispEdges">
  <g id="char_red" transform="translate(2, 4)">
    <rect x="0" y="0" width="8" height="8" fill="#000000"/> <rect x="1" y="1" width="6" height="6" fill="#f0d0a0"/> <rect x="2" y="2" width="1" height="1" fill="#000000"/> <rect x="5" y="2" width="1" height="1" fill="#000000"/> <rect x="0" y="8" width="8" height="10" fill="#000000"/> <rect x="1" y="9" width="6" height="8" fill="#FF0000"/> <rect x="0" y="18" width="8" height="6" fill="#000000"/> <rect x="1" y="19" width="6" height="4" fill="#a07050"/> <rect x="-1" y="11" width="1" height="1" fill="#f0d0a0"/> <rect x="8" y="11" width="1" height="1" fill="#f0d0a0"/> </g>
  
  <g id="char_green" transform="translate(12, 4)">
    <rect x="0" y="0" width="8" height="8" fill="#000000"/>
    <rect x="1" y="1" width="6" height="6" fill="#f0d0a0"/>
    <rect x="2" y="2" width="1" height="1" fill="#000000"/>
    <rect x="5" y="2" width="1" height="1" fill="#000000"/>
    
    <rect x="0" y="8" width="8" height="10" fill="#000000"/>
    <rect x="1" y="9" width="6" height="8" fill="#00FF00"/>
    
    <rect x="0" y="18" width="8" height="6" fill="#000000"/>
    <rect x="1" y="19" width="6" height="4" fill="#a07050"/>
    
    <rect x="-1" y="11" width="1" height="1" fill="#f0d0a0"/>
    <rect x="8" y="11" width="1" height="1" fill="#f0d0a0"/>
  </g>
  
  <g id="char_blue" transform="translate(22, 4)">
    <rect x="0" y="0" width="8" height="8" fill="#000000"/>
    <rect x="1" y="1" width="6" height="6" fill="#f0d0a0"/>
    <rect x="2" y="2" width="1" height="1" fill="#000000"/>
    <rect x="5" y="2" width="1" height="1" fill="#000000"/>
    
    <rect x="0" y="8" width="8" height="10" fill="#000000"/>
    <rect x="1" y="9" width="6" height="8" fill="#0000FF"/>
    
    <rect x="0" y="18" width="8" height="6" fill="#000000"/>
    <rect x="1" y="19" width="6" height="4" fill="#a07050"/>
    
    <rect x="-1" y="11" width="1" height="1" fill="#f0d0a0"/>
    <rect x="8" y="11" width="1" height="1" fill="#f0d0a0"/>
  </g>
</svg>